<?xml version="1.0" encoding="UTF-8"?>
<svg width="100pt" height="100pt" version="1.1" viewBox="0 0 100 100" xmlns="http://www.w3.org/2000/svg">
 <g fill-rule="evenodd">
  <path d="m54.914 5.7695c0 1.0234-1.5352 1.0234-1.5352 0 0-1.0273 1.5352-1.0273 1.5352 0"/>
  <path d="m57.68 5.7695c0 1.0234-1.5391 1.0234-1.5391 0 0-1.0273 1.5391-1.0273 1.5391 0"/>
  <path d="m57.68 8.5312c0 1.0234-1.5391 1.0234-1.5391 0s1.5391-1.0234 1.5391 0"/>
  <path d="m60.445 8.5312c0 1.0234-1.5391 1.0234-1.5391 0s1.5391-1.0234 1.5391 0"/>
  <path d="m57.68 11.297c0 1.0234-1.5391 1.0234-1.5391 0s1.5391-1.0234 1.5391 0"/>
  <path d="m60.445 11.297c0 1.0234-1.5391 1.0234-1.5391 0s1.5391-1.0234 1.5391 0"/>
  <path d="m60.445 14.059c0 1.0273-1.5391 1.0273-1.5391 0 0-1.0234 1.5391-1.0234 1.5391 0"/>
  <path d="m63.207 14.059c0 1.0273-1.5352 1.0273-1.5352 0 0-1.0234 1.5352-1.0234 1.5352 0"/>
  <path d="m63.207 16.824c0 1.0273-1.5352 1.0273-1.5352 0 0-1.0234 1.5352-1.0234 1.5352 0"/>
  <path d="m65.973 19.59c0 1.0234-1.5352 1.0234-1.5352 0 0-1.0234 1.5352-1.0234 1.5352 0"/>
  <path d="m68.738 19.59c0 1.0234-1.5352 1.0234-1.5352 0 0-1.0234 1.5352-1.0234 1.5352 0"/>
  <path d="m63.207 22.355c0 1.0234-1.5352 1.0234-1.5352 0 0-1.0273 1.5352-1.0273 1.5352 0"/>
  <path d="m65.973 22.355c0 1.0234-1.5352 1.0234-1.5352 0 0-1.0273 1.5352-1.0273 1.5352 0"/>
  <path d="m68.738 22.355c0 1.0234-1.5352 1.0234-1.5352 0 0-1.0273 1.5352-1.0273 1.5352 0"/>
  <path d="m65.973 25.121c0 1.0234-1.5352 1.0234-1.5352 0 0-1.0234 1.5352-1.0234 1.5352 0"/>
  <path d="m68.738 25.121c0 1.0234-1.5352 1.0234-1.5352 0 0-1.0234 1.5352-1.0234 1.5352 0"/>
  <path d="m71.504 25.121c0 1.0234-1.5391 1.0234-1.5391 0 0-1.0234 1.5391-1.0234 1.5391 0"/>
  <path d="m79.793 25.121c0 1.0234-1.5352 1.0234-1.5352 0 0-1.0234 1.5352-1.0234 1.5352 0"/>
  <path d="m82.559 25.121c0 1.0234-1.5352 1.0234-1.5352 0 0-1.0234 1.5352-1.0234 1.5352 0"/>
  <path d="m65.973 27.883c0 1.0234-1.5352 1.0234-1.5352 0 0-1.0234 1.5352-1.0234 1.5352 0"/>
  <path d="m68.738 27.883c0 1.0234-1.5352 1.0234-1.5352 0 0-1.0234 1.5352-1.0234 1.5352 0"/>
  <path d="m71.504 27.883c0 1.0234-1.5391 1.0234-1.5391 0 0-1.0234 1.5391-1.0234 1.5391 0"/>
  <path d="m74.266 27.883c0 1.0234-1.5352 1.0234-1.5352 0 0-1.0234 1.5352-1.0234 1.5352 0"/>
  <path d="m77.031 27.883c0 1.0234-1.5391 1.0234-1.5391 0 0-1.0234 1.5391-1.0234 1.5391 0"/>
  <path d="m79.793 27.883c0 1.0234-1.5352 1.0234-1.5352 0 0-1.0234 1.5352-1.0234 1.5352 0"/>
  <path d="m82.559 27.883c0 1.0234-1.5352 1.0234-1.5352 0 0-1.0234 1.5352-1.0234 1.5352 0"/>
  <path d="m63.207 30.648c0 1.0234-1.5352 1.0234-1.5352 0 0-1.0234 1.5352-1.0234 1.5352 0"/>
  <path d="m65.973 30.648c0 1.0234-1.5352 1.0234-1.5352 0 0-1.0234 1.5352-1.0234 1.5352 0"/>
  <path d="m68.738 30.648c0 1.0234-1.5352 1.0234-1.5352 0 0-1.0234 1.5352-1.0234 1.5352 0"/>
  <path d="m71.504 30.648c0 1.0234-1.5391 1.0234-1.5391 0 0-1.0234 1.5391-1.0234 1.5391 0"/>
  <path d="m74.266 30.648c0 1.0234-1.5352 1.0234-1.5352 0 0-1.0234 1.5352-1.0234 1.5352 0"/>
  <path d="m77.031 30.648c0 1.0234-1.5391 1.0234-1.5391 0 0-1.0234 1.5391-1.0234 1.5391 0"/>
  <path d="m79.793 30.648c0 1.0234-1.5352 1.0234-1.5352 0 0-1.0234 1.5352-1.0234 1.5352 0"/>
  <path d="m82.559 30.648c0 1.0234-1.5352 1.0234-1.5352 0 0-1.0234 1.5352-1.0234 1.5352 0"/>
  <path d="m60.445 33.41c0 1.0273-1.5391 1.0273-1.5391 0 0-1.0234 1.5391-1.0234 1.5391 0"/>
  <path d="m63.207 33.41c0 1.0273-1.5352 1.0273-1.5352 0 0-1.0234 1.5352-1.0234 1.5352 0"/>
  <path d="m65.973 33.41c0 1.0273-1.5352 1.0273-1.5352 0 0-1.0234 1.5352-1.0234 1.5352 0"/>
  <path d="m68.738 33.41c0 1.0273-1.5352 1.0273-1.5352 0 0-1.0234 1.5352-1.0234 1.5352 0"/>
  <path d="m71.504 33.41c0 1.0273-1.5391 1.0273-1.5391 0 0-1.0234 1.5391-1.0234 1.5391 0"/>
  <path d="m74.266 33.41c0 1.0273-1.5352 1.0273-1.5352 0 0-1.0234 1.5352-1.0234 1.5352 0"/>
  <path d="m77.031 33.41c0 1.0273-1.5391 1.0273-1.5391 0 0-1.0234 1.5391-1.0234 1.5391 0"/>
  <path d="m79.793 33.41c0 1.0273-1.5352 1.0273-1.5352 0 0-1.0234 1.5352-1.0234 1.5352 0"/>
  <path d="m60.445 36.176c0 1.0234-1.5391 1.0234-1.5391 0 0-1.0234 1.5391-1.0234 1.5391 0"/>
  <path d="m63.207 36.176c0 1.0234-1.5352 1.0234-1.5352 0 0-1.0234 1.5352-1.0234 1.5352 0"/>
  <path d="m65.973 36.176c0 1.0234-1.5352 1.0234-1.5352 0 0-1.0234 1.5352-1.0234 1.5352 0"/>
  <path d="m68.738 36.176c0 1.0234-1.5352 1.0234-1.5352 0 0-1.0234 1.5352-1.0234 1.5352 0"/>
  <path d="m71.504 36.176c0 1.0234-1.5391 1.0234-1.5391 0 0-1.0234 1.5391-1.0234 1.5391 0"/>
  <path d="m74.266 36.176c0 1.0234-1.5352 1.0234-1.5352 0 0-1.0234 1.5352-1.0234 1.5352 0"/>
  <path d="m63.207 38.941c0 1.0234-1.5352 1.0234-1.5352 0 0-1.0234 1.5352-1.0234 1.5352 0"/>
  <path d="m65.973 38.941c0 1.0234-1.5352 1.0234-1.5352 0 0-1.0234 1.5352-1.0234 1.5352 0"/>
  <path d="m68.738 38.941c0 1.0234-1.5352 1.0234-1.5352 0 0-1.0234 1.5352-1.0234 1.5352 0"/>
  <path d="m71.504 38.941c0 1.0234-1.5391 1.0234-1.5391 0 0-1.0234 1.5391-1.0234 1.5391 0"/>
  <path d="m74.266 38.941c0 1.0234-1.5352 1.0234-1.5352 0 0-1.0234 1.5352-1.0234 1.5352 0"/>
  <path d="m65.973 41.707c0 1.0234-1.5352 1.0234-1.5352 0 0-1.0234 1.5352-1.0234 1.5352 0"/>
  <path d="m68.738 41.707c0 1.0234-1.5352 1.0234-1.5352 0 0-1.0234 1.5352-1.0234 1.5352 0"/>
  <path d="m71.504 41.707c0 1.0234-1.5391 1.0234-1.5391 0 0-1.0234 1.5391-1.0234 1.5391 0"/>
  <path d="m74.266 41.707c0 1.0234-1.5352 1.0234-1.5352 0 0-1.0234 1.5352-1.0234 1.5352 0"/>
  <path d="m52.148 44.469c0 1.0234-1.5352 1.0234-1.5352 0s1.5352-1.0234 1.5352 0"/>
  <path d="m65.973 44.469c0 1.0234-1.5352 1.0234-1.5352 0s1.5352-1.0234 1.5352 0"/>
  <path d="m68.738 44.469c0 1.0234-1.5352 1.0234-1.5352 0s1.5352-1.0234 1.5352 0"/>
  <path d="m71.504 44.469c0 1.0234-1.5391 1.0234-1.5391 0s1.5391-1.0234 1.5391 0"/>
  <path d="m49.387 47.234c0 1.0234-1.5352 1.0234-1.5352 0s1.5352-1.0234 1.5352 0"/>
  <path d="m52.148 47.234c0 1.0234-1.5352 1.0234-1.5352 0s1.5352-1.0234 1.5352 0"/>
  <path d="m65.973 47.234c0 1.0234-1.5352 1.0234-1.5352 0s1.5352-1.0234 1.5352 0"/>
  <path d="m68.738 47.234c0 1.0234-1.5352 1.0234-1.5352 0s1.5352-1.0234 1.5352 0"/>
  <path d="m71.504 47.234c0 1.0234-1.5391 1.0234-1.5391 0s1.5391-1.0234 1.5391 0"/>
  <path d="m49.387 50c0 1.0234-1.5352 1.0234-1.5352 0s1.5352-1.0234 1.5352 0"/>
  <path d="m52.148 50c0 1.0234-1.5352 1.0234-1.5352 0s1.5352-1.0234 1.5352 0"/>
  <path d="m54.914 50c0 1.0234-1.5352 1.0234-1.5352 0s1.5352-1.0234 1.5352 0"/>
  <path d="m57.68 50c0 1.0234-1.5391 1.0234-1.5391 0s1.5391-1.0234 1.5391 0"/>
  <path d="m60.445 50c0 1.0234-1.5391 1.0234-1.5391 0s1.5391-1.0234 1.5391 0"/>
  <path d="m63.207 50c0 1.0234-1.5352 1.0234-1.5352 0s1.5352-1.0234 1.5352 0"/>
  <path d="m65.973 50c0 1.0234-1.5352 1.0234-1.5352 0s1.5352-1.0234 1.5352 0"/>
  <path d="m68.738 50c0 1.0234-1.5352 1.0234-1.5352 0s1.5352-1.0234 1.5352 0"/>
  <path d="m49.387 52.766c0 1.0234-1.5352 1.0234-1.5352 0 0-1.0273 1.5352-1.0273 1.5352 0"/>
  <path d="m52.148 52.766c0 1.0234-1.5352 1.0234-1.5352 0 0-1.0273 1.5352-1.0273 1.5352 0"/>
  <path d="m54.914 52.766c0 1.0234-1.5352 1.0234-1.5352 0 0-1.0273 1.5352-1.0273 1.5352 0"/>
  <path d="m57.68 52.766c0 1.0234-1.5391 1.0234-1.5391 0 0-1.0273 1.5391-1.0273 1.5391 0"/>
  <path d="m60.445 52.766c0 1.0234-1.5391 1.0234-1.5391 0 0-1.0273 1.5391-1.0273 1.5391 0"/>
  <path d="m46.621 55.527c0 1.0234-1.5352 1.0234-1.5352 0 0-1.0234 1.5352-1.0234 1.5352 0"/>
  <path d="m49.387 55.527c0 1.0234-1.5352 1.0234-1.5352 0 0-1.0234 1.5352-1.0234 1.5352 0"/>
  <path d="m52.148 55.527c0 1.0234-1.5352 1.0234-1.5352 0 0-1.0234 1.5352-1.0234 1.5352 0"/>
  <path d="m54.914 55.527c0 1.0234-1.5352 1.0234-1.5352 0 0-1.0234 1.5352-1.0234 1.5352 0"/>
  <path d="m57.68 55.527c0 1.0234-1.5391 1.0234-1.5391 0 0-1.0234 1.5391-1.0234 1.5391 0"/>
  <path d="m43.855 58.293c0 1.0234-1.5352 1.0234-1.5352 0 0-1.0234 1.5352-1.0234 1.5352 0"/>
  <path d="m46.621 58.293c0 1.0234-1.5352 1.0234-1.5352 0 0-1.0234 1.5352-1.0234 1.5352 0"/>
  <path d="m49.387 58.293c0 1.0234-1.5352 1.0234-1.5352 0 0-1.0234 1.5352-1.0234 1.5352 0"/>
  <path d="m52.148 58.293c0 1.0234-1.5352 1.0234-1.5352 0 0-1.0234 1.5352-1.0234 1.5352 0"/>
  <path d="m54.914 58.293c0 1.0234-1.5352 1.0234-1.5352 0 0-1.0234 1.5352-1.0234 1.5352 0"/>
  <path d="m57.68 58.293c0 1.0234-1.5391 1.0234-1.5391 0 0-1.0234 1.5391-1.0234 1.5391 0"/>
  <path d="m43.855 61.059c0 1.0234-1.5352 1.0234-1.5352 0 0-1.0234 1.5352-1.0234 1.5352 0"/>
  <path d="m46.621 61.059c0 1.0234-1.5352 1.0234-1.5352 0 0-1.0234 1.5352-1.0234 1.5352 0"/>
  <path d="m49.387 61.059c0 1.0234-1.5352 1.0234-1.5352 0 0-1.0234 1.5352-1.0234 1.5352 0"/>
  <path d="m52.148 61.059c0 1.0234-1.5352 1.0234-1.5352 0 0-1.0234 1.5352-1.0234 1.5352 0"/>
  <path d="m54.914 61.059c0 1.0234-1.5352 1.0234-1.5352 0 0-1.0234 1.5352-1.0234 1.5352 0"/>
  <path d="m38.324 63.82c0 1.0273-1.5352 1.0273-1.5352 0 0-1.0234 1.5352-1.0234 1.5352 0"/>
  <path d="m41.094 63.82c0 1.0273-1.5391 1.0273-1.5391 0 0-1.0234 1.5391-1.0234 1.5391 0"/>
  <path d="m43.855 63.82c0 1.0273-1.5352 1.0273-1.5352 0 0-1.0234 1.5352-1.0234 1.5352 0"/>
  <path d="m46.621 63.82c0 1.0273-1.5352 1.0273-1.5352 0 0-1.0234 1.5352-1.0234 1.5352 0"/>
  <path d="m49.387 63.82c0 1.0273-1.5352 1.0273-1.5352 0 0-1.0234 1.5352-1.0234 1.5352 0"/>
  <path d="m52.148 63.82c0 1.0273-1.5352 1.0273-1.5352 0 0-1.0234 1.5352-1.0234 1.5352 0"/>
  <path d="m35.562 66.586c0 1.0234-1.5352 1.0234-1.5352 0 0-1.0234 1.5352-1.0234 1.5352 0"/>
  <path d="m38.324 66.586c0 1.0234-1.5352 1.0234-1.5352 0 0-1.0234 1.5352-1.0234 1.5352 0"/>
  <path d="m41.094 66.586c0 1.0234-1.5391 1.0234-1.5391 0 0-1.0234 1.5391-1.0234 1.5391 0"/>
  <path d="m43.855 66.586c0 1.0234-1.5352 1.0234-1.5352 0 0-1.0234 1.5352-1.0234 1.5352 0"/>
  <path d="m46.621 66.586c0 1.0234-1.5352 1.0234-1.5352 0 0-1.0234 1.5352-1.0234 1.5352 0"/>
  <path d="m49.387 66.586c0 1.0234-1.5352 1.0234-1.5352 0 0-1.0234 1.5352-1.0234 1.5352 0"/>
  <path d="m52.148 66.586c0 1.0234-1.5352 1.0234-1.5352 0 0-1.0234 1.5352-1.0234 1.5352 0"/>
  <path d="m32.797 69.352c0 1.0234-1.5352 1.0234-1.5352 0 0-1.0234 1.5352-1.0234 1.5352 0"/>
  <path d="m35.562 69.352c0 1.0234-1.5352 1.0234-1.5352 0 0-1.0234 1.5352-1.0234 1.5352 0"/>
  <path d="m38.324 69.352c0 1.0234-1.5352 1.0234-1.5352 0 0-1.0234 1.5352-1.0234 1.5352 0"/>
  <path d="m41.094 69.352c0 1.0234-1.5391 1.0234-1.5391 0 0-1.0234 1.5391-1.0234 1.5391 0"/>
  <path d="m43.855 69.352c0 1.0234-1.5352 1.0234-1.5352 0 0-1.0234 1.5352-1.0234 1.5352 0"/>
  <path d="m46.621 69.352c0 1.0234-1.5352 1.0234-1.5352 0 0-1.0234 1.5352-1.0234 1.5352 0"/>
  <path d="m49.387 69.352c0 1.0234-1.5352 1.0234-1.5352 0 0-1.0234 1.5352-1.0234 1.5352 0"/>
  <path d="m27.27 72.117c0 1.0234-1.5352 1.0234-1.5352 0 0-1.0234 1.5352-1.0234 1.5352 0"/>
  <path d="m30.035 72.117c0 1.0234-1.5391 1.0234-1.5391 0 0-1.0234 1.5391-1.0234 1.5391 0"/>
  <path d="m32.797 72.117c0 1.0234-1.5352 1.0234-1.5352 0 0-1.0234 1.5352-1.0234 1.5352 0"/>
  <path d="m35.562 72.117c0 1.0234-1.5352 1.0234-1.5352 0 0-1.0234 1.5352-1.0234 1.5352 0"/>
  <path d="m38.324 72.117c0 1.0234-1.5352 1.0234-1.5352 0 0-1.0234 1.5352-1.0234 1.5352 0"/>
  <path d="m41.094 72.117c0 1.0234-1.5391 1.0234-1.5391 0 0-1.0234 1.5391-1.0234 1.5391 0"/>
  <path d="m43.855 72.117c0 1.0234-1.5352 1.0234-1.5352 0 0-1.0234 1.5352-1.0234 1.5352 0"/>
  <path d="m24.508 74.879c0 1.0234-1.5391 1.0234-1.5391 0 0-1.0234 1.5391-1.0234 1.5391 0"/>
  <path d="m27.27 74.879c0 1.0234-1.5352 1.0234-1.5352 0 0-1.0234 1.5352-1.0234 1.5352 0"/>
  <path d="m30.035 74.879c0 1.0234-1.5391 1.0234-1.5391 0 0-1.0234 1.5391-1.0234 1.5391 0"/>
  <path d="m32.797 74.879c0 1.0234-1.5352 1.0234-1.5352 0 0-1.0234 1.5352-1.0234 1.5352 0"/>
  <path d="m35.562 74.879c0 1.0234-1.5352 1.0234-1.5352 0 0-1.0234 1.5352-1.0234 1.5352 0"/>
  <path d="m38.324 74.879c0 1.0234-1.5352 1.0234-1.5352 0 0-1.0234 1.5352-1.0234 1.5352 0"/>
  <path d="m41.094 74.879c0 1.0234-1.5391 1.0234-1.5391 0 0-1.0234 1.5391-1.0234 1.5391 0"/>
  <path d="m43.855 74.879c0 1.0234-1.5352 1.0234-1.5352 0 0-1.0234 1.5352-1.0234 1.5352 0"/>
  <path d="m21.738 77.645c0 1.0234-1.5352 1.0234-1.5352 0 0-1.0234 1.5352-1.0234 1.5352 0"/>
  <path d="m24.508 77.645c0 1.0234-1.5391 1.0234-1.5391 0 0-1.0234 1.5391-1.0234 1.5391 0"/>
  <path d="m27.27 77.645c0 1.0234-1.5352 1.0234-1.5352 0 0-1.0234 1.5352-1.0234 1.5352 0"/>
  <path d="m30.035 77.645c0 1.0234-1.5391 1.0234-1.5391 0 0-1.0234 1.5391-1.0234 1.5391 0"/>
  <path d="m32.797 77.645c0 1.0234-1.5352 1.0234-1.5352 0 0-1.0234 1.5352-1.0234 1.5352 0"/>
  <path d="m35.562 77.645c0 1.0234-1.5352 1.0234-1.5352 0 0-1.0234 1.5352-1.0234 1.5352 0"/>
  <path d="m38.324 77.645c0 1.0234-1.5352 1.0234-1.5352 0 0-1.0234 1.5352-1.0234 1.5352 0"/>
  <path d="m41.094 77.645c0 1.0234-1.5391 1.0234-1.5391 0 0-1.0234 1.5391-1.0234 1.5391 0"/>
  <path d="m21.738 80.406c0 1.0273-1.5352 1.0273-1.5352 0 0-1.0234 1.5352-1.0234 1.5352 0"/>
  <path d="m24.508 80.406c0 1.0273-1.5391 1.0273-1.5391 0 0-1.0234 1.5391-1.0234 1.5391 0"/>
  <path d="m27.27 80.406c0 1.0273-1.5352 1.0273-1.5352 0 0-1.0234 1.5352-1.0234 1.5352 0"/>
  <path d="m30.035 80.406c0 1.0273-1.5391 1.0273-1.5391 0 0-1.0234 1.5391-1.0234 1.5391 0"/>
  <path d="m32.797 80.406c0 1.0273-1.5352 1.0273-1.5352 0 0-1.0234 1.5352-1.0234 1.5352 0"/>
  <path d="m35.562 80.406c0 1.0273-1.5352 1.0273-1.5352 0 0-1.0234 1.5352-1.0234 1.5352 0"/>
  <path d="m38.324 80.406c0 1.0273-1.5352 1.0273-1.5352 0 0-1.0234 1.5352-1.0234 1.5352 0"/>
  <path d="m41.094 80.406c0 1.0273-1.5391 1.0273-1.5391 0 0-1.0234 1.5391-1.0234 1.5391 0"/>
  <path d="m18.977 83.176c0 1.0234-1.5352 1.0234-1.5352 0 0-1.0273 1.5352-1.0273 1.5352 0"/>
  <path d="m21.738 83.176c0 1.0234-1.5352 1.0234-1.5352 0 0-1.0273 1.5352-1.0273 1.5352 0"/>
  <path d="m24.508 83.176c0 1.0234-1.5391 1.0234-1.5391 0 0-1.0273 1.5391-1.0273 1.5391 0"/>
  <path d="m27.27 83.176c0 1.0234-1.5352 1.0234-1.5352 0 0-1.0273 1.5352-1.0273 1.5352 0"/>
  <path d="m30.035 83.176c0 1.0234-1.5391 1.0234-1.5391 0 0-1.0273 1.5391-1.0273 1.5391 0"/>
  <path d="m32.797 83.176c0 1.0234-1.5352 1.0234-1.5352 0 0-1.0273 1.5352-1.0273 1.5352 0"/>
  <path d="m35.562 83.176c0 1.0234-1.5352 1.0234-1.5352 0 0-1.0273 1.5352-1.0273 1.5352 0"/>
  <path d="m38.324 83.176c0 1.0234-1.5352 1.0234-1.5352 0 0-1.0273 1.5352-1.0273 1.5352 0"/>
  <path d="m18.977 85.938c0 1.0234-1.5352 1.0234-1.5352 0s1.5352-1.0234 1.5352 0"/>
  <path d="m21.738 85.938c0 1.0234-1.5352 1.0234-1.5352 0s1.5352-1.0234 1.5352 0"/>
  <path d="m24.508 85.938c0 1.0234-1.5391 1.0234-1.5391 0s1.5391-1.0234 1.5391 0"/>
  <path d="m27.27 85.938c0 1.0234-1.5352 1.0234-1.5352 0s1.5352-1.0234 1.5352 0"/>
  <path d="m30.035 85.938c0 1.0234-1.5391 1.0234-1.5391 0s1.5391-1.0234 1.5391 0"/>
  <path d="m32.797 85.938c0 1.0234-1.5352 1.0234-1.5352 0s1.5352-1.0234 1.5352 0"/>
  <path d="m35.562 85.938c0 1.0234-1.5352 1.0234-1.5352 0s1.5352-1.0234 1.5352 0"/>
  <path d="m38.324 85.938c0 1.0234-1.5352 1.0234-1.5352 0s1.5352-1.0234 1.5352 0"/>
  <path d="m24.508 88.703c0 1.0234-1.5391 1.0234-1.5391 0s1.5391-1.0234 1.5391 0"/>
  <path d="m27.27 88.703c0 1.0234-1.5352 1.0234-1.5352 0s1.5352-1.0234 1.5352 0"/>
  <path d="m30.035 88.703c0 1.0234-1.5391 1.0234-1.5391 0s1.5391-1.0234 1.5391 0"/>
  <path d="m32.797 88.703c0 1.0234-1.5352 1.0234-1.5352 0s1.5352-1.0234 1.5352 0"/>
  <path d="m35.562 88.703c0 1.0234-1.5352 1.0234-1.5352 0s1.5352-1.0234 1.5352 0"/>
  <path d="m32.797 91.469c0 1.0234-1.5352 1.0234-1.5352 0 0-1.0273 1.5352-1.0273 1.5352 0"/>
  <path d="m24.508 94.23c0 1.0273-1.5391 1.0273-1.5391 0 0-1.0234 1.5391-1.0234 1.5391 0"/>
  <path d="m27.27 94.23c0 1.0273-1.5352 1.0273-1.5352 0 0-1.0234 1.5352-1.0234 1.5352 0"/>
 </g>
</svg>
